<?xml version="1.0" encoding="UTF-8" standalone="no"?>
<!DOCTYPE svg PUBLIC "-//W3C//DTD SVG 1.1//EN" "http://www.w3.org/Graphics/SVG/1.1/DTD/svg11.dtd">
<!-- Created with Vectornator (http://vectornator.io/) -->
<svg height="100%" stroke-miterlimit="10" style="fill-rule:nonzero;clip-rule:evenodd;stroke-linecap:round;stroke-linejoin:round;" version="1.1" viewBox="0 0 600 300" width="100%" xml:space="preserve" xmlns="http://www.w3.org/2000/svg" xmlns:vectornator="http://vectornator.io" xmlns:xlink="http://www.w3.org/1999/xlink">
<defs>
<linearGradient gradientTransform="matrix(1 0 0 1 0 0)" gradientUnits="userSpaceOnUse" id="LinearGradient" x1="225.497" x2="225.497" y1="20.9256" y2="279.083">
<stop offset="0" stop-color="#6aedff"/>
<stop offset="0" stop-color="#ffb65c"/>
<stop offset="1" stop-color="#ff6dc9"/>
</linearGradient>
<linearGradient gradientTransform="matrix(1 0 0 1 0 0)" gradientUnits="userSpaceOnUse" id="LinearGradient_2" x1="374.508" x2="374.508" y1="20.9256" y2="279.074">
<stop offset="0" stop-color="#ffb65c"/>
<stop offset="1" stop-color="#ff6dc9"/>
</linearGradient>
<linearGradient gradientTransform="matrix(1 0 0 1 0 0)" gradientUnits="userSpaceOnUse" id="LinearGradient_3" x1="523.526" x2="523.526" y1="20.9256" y2="279.083">
<stop offset="0" stop-color="#ffb65c"/>
<stop offset="1" stop-color="#ff6dc9"/>
</linearGradient>
<linearGradient gradientTransform="matrix(1 0 0 1 0 0)" gradientUnits="userSpaceOnUse" id="LinearGradient_4" x1="86.4523" x2="86.4523" y1="20.9256" y2="279.074">
<stop offset="0" stop-color="#6aedff"/>
<stop offset="1" stop-color="#ff6dc9"/>
</linearGradient>
<path d="M574.365 167.253L574.365 196.034C574.365 197.25 574.081 198.371 573.513 199.397C572.945 200.422 572.138 201.335 571.093 202.134C570.048 202.934 568.843 203.559 567.48 204.011C566.117 204.463 564.663 204.689 563.118 204.689C561.573 204.689 560.13 204.463 558.789 204.011C557.449 203.559 556.256 202.934 555.211 202.134C554.165 201.335 553.347 200.422 552.757 199.397C552.166 198.371 551.871 197.25 551.871 196.034L551.871 167.253L558.823 167.253L558.823 195.512C558.823 196.833 559.232 197.806 560.05 198.432C560.868 199.058 561.891 199.371 563.118 199.371C564.345 199.371 565.367 199.058 566.185 198.432C567.003 197.806 567.412 196.833 567.412 195.512L567.412 167.253L574.365 167.253Z" id="Fill"/>
<path d="M581.113 204.376L581.113 167.253L588.066 167.253L588.066 204.376L581.113 204.376Z" id="Fill_2"/>
</defs>
<g id="图层-1" vectornator:layerName="图层 1">
<path d="M225.511 20.9168C191.1 20.9168 163.058 47.8626 161.154 81.7982C161.127 82.2845 161.087 82.7667 161.07 83.2558L161.07 87.6285L161.07 212.335C161.045 213.068 160.958 213.782 160.958 214.521C160.958 250.165 189.867 279.074 225.511 279.074C261.156 279.074 290.037 250.165 290.037 214.521L290.037 85.4422C290.037 84.2096 289.909 83.0137 289.841 81.7982C287.937 47.8627 259.923 20.9168 225.511 20.9168ZM225.567 44.8825C245.949 44.8825 262.455 61.4166 262.455 81.7982L262.455 138.307L262.455 161.656L262.455 214.521C262.455 234.903 245.949 251.437 225.567 251.437C205.186 251.437 188.652 234.903 188.652 214.521L188.652 161.572L188.652 138.391L188.652 81.7982C188.652 61.4166 205.186 44.8825 225.567 44.8825Z" fill="url(#LinearGradient)" fill-rule="nonzero" opacity="1" stroke="#282a37" stroke-linecap="butt" stroke-linejoin="round" stroke-width="2"/>
<path d="M374.522 20.9168C340.11 20.9168 312.069 47.8626 310.165 81.7982C310.138 82.2845 310.097 82.7667 310.081 83.2558L310.081 87.6285L310.081 212.335C310.056 213.068 309.969 213.782 309.969 214.521C309.969 250.165 338.878 279.074 374.522 279.074C410.166 279.074 439.047 250.165 439.047 214.521L439.047 85.4422C439.047 84.2096 438.919 83.0137 438.851 81.7982C436.948 47.8627 408.934 20.9168 374.522 20.9168ZM374.578 44.8825C394.96 44.8825 411.466 61.4166 411.466 81.7982L411.466 138.307L411.466 161.656L411.466 214.521C411.466 234.903 394.96 251.437 374.578 251.437C354.196 251.437 337.662 234.903 337.662 214.521L337.662 161.572L337.662 138.391L337.662 81.7982C337.662 61.4166 354.196 44.8825 374.578 44.8825Z" fill="url(#LinearGradient_2)" fill-rule="nonzero" opacity="1" stroke="#282a37" stroke-linecap="butt" stroke-linejoin="round" stroke-width="2"/>
<path d="M523.512 20.9256C489.113 20.9403 461.086 47.8807 459.183 81.8071C459.156 82.2934 459.116 82.7755 459.099 83.2646L459.099 87.6373L459.099 212.343C459.074 213.077 458.987 213.79 458.987 214.53C458.987 250.174 487.896 279.083 523.54 279.083C559.185 279.083 588.066 250.174 588.066 214.53L588.066 213.829L560.484 213.829L560.484 214.53C560.484 234.911 543.978 251.446 523.596 251.446C503.215 251.446 486.681 234.912 486.681 214.53L486.681 161.581L486.681 138.4L486.681 81.8071C486.681 61.4539 503.17 44.9374 523.512 44.8914L523.512 20.9256Z" fill="url(#LinearGradient_3)" fill-rule="nonzero" opacity="1" stroke="#282a37" stroke-linecap="butt" stroke-linejoin="round" stroke-width="2"/>
<path d="M76.4876 20.9256C74.3369 20.9256 72.2209 21.0283 70.1248 21.2339C63.8363 21.8509 57.8089 23.3704 52.1855 25.6627C42.8132 29.4832 34.5551 35.4293 27.9955 42.9293C27.991 42.9344 27.9999 42.9522 27.9955 42.9573C26.6888 44.4522 25.4336 45.9983 24.2674 47.6103C24.2632 47.6162 24.2718 47.6324 24.2674 47.6383C23.1021 49.2504 21.9753 50.9082 20.9599 52.6277C20.9559 52.6344 20.9638 52.6489 20.9599 52.6557C15.8706 61.2814 12.7248 71.2109 12.1304 81.8071C12.1031 82.2934 12.0627 82.7755 12.0463 83.2646L12.0463 87.6373L12.0463 212.343C12.0216 213.077 11.9342 213.79 11.9342 214.53C11.9342 221.213 12.9628 227.639 14.8493 233.702C14.852 233.711 14.8467 233.722 14.8493 233.73C16.106 237.764 17.7429 241.628 19.7266 245.279C19.7306 245.286 19.7226 245.3 19.7266 245.307C20.7173 247.129 21.7943 248.894 22.95 250.605C22.9545 250.611 22.9456 250.626 22.95 250.633C24.1066 252.343 25.3671 253.978 26.678 255.566C26.6828 255.572 26.6733 255.588 26.678 255.594C29.3061 258.776 32.2404 261.712 35.4234 264.339C38.6118 266.971 42.0518 269.303 45.7105 271.291C54.8572 276.26 65.3487 279.083 76.4876 279.083C78.6204 279.083 80.7148 278.977 82.7944 278.775C83.504 278.706 84.1941 278.559 84.8967 278.467C86.2584 278.289 87.6273 278.111 88.961 277.85C89.7201 277.7 90.4542 277.494 91.2034 277.317C92.4542 277.025 93.7098 276.728 94.9314 276.364C95.7831 276.109 96.6178 275.813 97.4542 275.523C98.4291 275.188 99.3881 274.838 100.341 274.458C101.476 274.003 102.603 273.517 103.705 273.001C104.282 272.731 104.847 272.445 105.415 272.16C106.621 271.55 107.813 270.908 108.975 270.226C109.542 269.893 110.1 269.538 110.656 269.189C111.682 268.544 112.698 267.898 113.684 267.198C114.302 266.761 114.904 266.312 115.506 265.853C116.562 265.046 117.612 264.227 118.617 263.358C118.682 263.302 118.748 263.247 118.813 263.19L135.071 274.907L135.099 274.879C137.848 277.468 141.535 279.083 145.61 279.083C154.093 279.083 160.97 272.206 160.97 263.723C160.97 258.148 157.958 253.324 153.514 250.633L153.542 250.577L136.472 238.243C136.562 238.016 136.609 237.771 136.696 237.543C137.313 235.932 137.916 234.305 138.406 232.637C138.409 232.629 138.404 232.618 138.406 232.609C138.428 232.536 138.441 232.459 138.462 232.385C138.972 230.626 139.418 228.848 139.78 227.031C139.965 226.085 140.056 225.105 140.2 224.144C140.369 223.036 140.594 221.934 140.705 220.809C140.707 220.781 140.702 220.752 140.705 220.724C140.903 218.683 141.013 216.625 141.013 214.53L141.013 85.451C141.013 84.2184 140.885 83.0225 140.817 81.8071C140.698 79.6861 140.49 77.5898 140.172 75.5283C138.901 67.2908 136.055 59.5549 131.987 52.6557C131.983 52.649 131.991 52.6344 131.987 52.6277C130.973 50.9083 129.872 49.2503 128.708 47.6383C128.703 47.6324 128.712 47.6161 128.708 47.6103C127.542 45.9983 126.286 44.4522 124.98 42.9573C118.424 35.4573 110.159 29.4832 100.79 25.6627C95.1684 23.3704 89.1383 21.8508 82.8505 21.2339C80.7545 21.0283 78.6384 20.9256 76.4876 20.9256ZM76.5437 44.8914C84.1868 44.8914 91.2868 47.217 97.1739 51.1982C106.986 57.8335 113.431 69.0686 113.431 81.8071L113.431 138.316L113.431 161.665L113.431 214.53C113.431 217.078 113.166 219.555 112.675 221.958C109.237 238.777 94.3776 251.446 76.5437 251.446C61.2663 251.446 48.1541 242.146 42.5431 228.909C42.5397 228.901 42.5465 228.889 42.5431 228.881C40.6746 224.465 39.628 219.625 39.628 214.53L39.628 161.581L39.628 138.4L39.628 81.8071C39.628 79.2689 39.8965 76.7735 40.3848 74.3791C40.3866 74.3702 40.3829 74.3599 40.3848 74.3511C41.3669 69.554 43.2877 65.0999 45.9348 61.1769C45.9388 61.1709 45.9307 61.1548 45.9348 61.1489C48.5889 57.2209 51.9855 53.8523 55.9135 51.1982C61.8055 47.217 68.9006 44.8914 76.5437 44.8914Z" fill="url(#LinearGradient_4)" fill-rule="nonzero" opacity="1" stroke="#282a37" stroke-linecap="butt" stroke-linejoin="round" stroke-width="2"/>
<g opacity="1">
<use fill="#43475c" fill-rule="nonzero" stroke="none" xlink:href="#Fill"/>
<mask height="41.4359" id="StrokeMask" maskUnits="userSpaceOnUse" width="26.4942" x="549.871" y="165.253">
<rect fill="#ffffff" height="41.4359" stroke="none" width="26.4942" x="549.871" y="165.253"/>
<use fill="#000000" fill-rule="evenodd" stroke="none" xlink:href="#Fill"/>
</mask>
<use fill="none" mask="url(#StrokeMask)" stroke="#f8f8f2" stroke-linecap="butt" stroke-linejoin="round" stroke-width="4" xlink:href="#Fill"/>
</g>
<g opacity="1">
<use fill="#43475c" fill-rule="nonzero" stroke="none" xlink:href="#Fill_2"/>
<mask height="41.123" id="StrokeMask_2" maskUnits="userSpaceOnUse" width="10.9528" x="579.113" y="165.253">
<rect fill="#ffffff" height="41.123" stroke="none" width="10.9528" x="579.113" y="165.253"/>
<use fill="#000000" fill-rule="evenodd" stroke="none" xlink:href="#Fill_2"/>
</mask>
<use fill="none" mask="url(#StrokeMask_2)" stroke="#f8f8f2" stroke-linecap="butt" stroke-linejoin="round" stroke-width="4" xlink:href="#Fill_2"/>
</g>
</g>
</svg>
